{"title":"Example - Perfect Replacement {M4A+MP4} (1080p) x264 [VX] [P2PDL","uid":7986342,"size":50007653,"categoryP":"video","categoryS":"music_videos","magnet":"?xt=urn:btih:1b4da240fa8de0d65b49b215863b433b9e479399&amp;dn=Example+-+Perfect+Replacement+%7BM4A%2BMP4%7D+%281080p%29+x264+%5BVX%5D+%5BP2PDL&amp;tr=udp%3A%2F%2Ftracker.openbittorrent.com%3A80&amp;tr=udp%3A%2F%2Fopen.demonii.com%3A1337&amp;tr=udp%3A%2F%2Ftracker.coppersurfer.tk%3A6969&amp;tr=udp%3A%2F%2Fexodus.desync.com%3A6969","seeders":1,"leechers":0,"uploader":"Vitamin_X","files":-1,"time":1357298082,"description":"_________________________  Visit us at _________________________\n  &lt;a href=&quot;\nhttp://p2pdl.com&quot; rel=&quot;nofollow&quot; target=&quot;_NEW&quot;&gt;\nhttp://p2pdl.com&lt;/a&gt;  ____________________________ &lt;a href=&quot; http://p2pdl.com&quot; rel=&quot;nofollow&quot; target=&quot;_NEW&quot;&gt; http://p2pdl.com&lt;/a&gt;\n                                                                                                   \n                                                                                                   \n                                                                                 \n                                                                                                    &lt;a href=&quot;\nhttp://www.shotpix.com/images/15688744089306218788.jpg&quot; rel=&quot;nofollow&quot; target=&quot;_NEW&quot;&gt;\nhttp://www.shotpix.com/images/15688744089306218788.jpg&lt;/a&gt;\n\n\nExample - Perfect Replacement {M4A+MP4} (1080p) x264 [VX] [P2PDL]\n\n\n                          1080p Full HD MP4 Video\n                                    +\n                          128 Kbps/VBR M4A Audio\n\nGeneral\nFormat                         : MPEG-4\nFormat profile                 : Base Media / Version 2\nCodec ID                       : mp42\nFile size                      : 43.5 MiB\nDuration                       : 4mn 18s\n\nVideo\nID                             : 1\nFormat                         : AVC\nFormat/Info                    : Advanced Video Codec\nBit rate                       : 1 280 Kbps\nWidth                          : 1 920 pixels\nHeight                         : 1 080 pixels\nDisplay aspect ratio           : 16:9\nFrame rate mode                : Constant\nFrame rate                     : 25.000 fps\nColor space                    : YUV\nChroma subsampling             : 4:2:0\nBit depth                      : 8 bits\nScan type                      : Progressive\nBits/(Pixel*Frame)             : 0.025\nStream size                    : 39.5 MiB (91%)\nWriting library                : x264 core 128\n\nAudio\nID                             : 2\nFormat                         : AAC\nDuration                       : 4mn 18s\nBit rate mode                  : Variable\nBit rate                       : 128 Kbps\nChannel(s)                     : 2 channels\nChannel positions              : Front: L R\nSampling rate                  : 48.0 KHz\nCompression mode               : Lossy\nStream size                    : 3.94 MiB (9%)\n\nSubtitles                      : No\n\nScreens:\n &lt;a href=&quot;\nhttp://www.shotpix.com/images/52198877326783037998.jpg&quot; rel=&quot;nofollow&quot; target=&quot;_NEW&quot;&gt;\nhttp://www.shotpix.com/images/52198877326783037998.jpg&lt;/a&gt; &lt;a href=&quot;\nhttp://www.shotpix.com/images/80923182268818818935.jpg&quot; rel=&quot;nofollow&quot; target=&quot;_NEW&quot;&gt;\nhttp://www.shotpix.com/images/80923182268818818935.jpg&lt;/a&gt;\n\nThumbs:\n &lt;a href=&quot;\nhttp://www.shotpix.com/images/61988287743537500978.jpg&quot; rel=&quot;nofollow&quot; target=&quot;_NEW&quot;&gt;\nhttp://www.shotpix.com/images/61988287743537500978.jpg&lt;/a&gt;\n\n------------------------------------------------------------------------\n\nNotes:\n\n* Recommended to use latest version VLC Media Player.\n* Install shark007 codecs in case of any kind of problem in playback (For non-VLC Media Player users).\n* Alternatively, install Core AVC codecs, the fastest decoder that there is coupled with Community Center Codec Pack and play on Windows Media Player Classic.\n\nGreets to: VYTO, a2zRG, Stumpie1971, Sheychi, Caveman, Ash968, Masta and staff members at ExtraTorrent, TPB,KAT, 1337x, PublicHD, Ahashare, TorrentMafia, Limetorrents, BTScene, P2PDL, and all others\n\nEncoder Notes: Looking For Early Access To Anything You Can Provide DVDScr, R5, DVDRips, BluRay, Direct Audio, Early Music\nReleases, Seedboxes, Links, Dedicated Servers anything u can provide, Advance / Promo CDs/DVDs. If You Got anything to\noffer contact me at &quot;&lt;a class=&quot;__cf_email__&quot; href=&quot;/cdn-cgi/l/email-protection&quot; data-cfemail=&quot;13636174537b66607b3d707c7e&quot;&gt;[email&amp;#160;protected]&lt;/a&gt;&lt;script cf-hash='f9e31' type=&quot;text/javascript&quot;&gt;\n/* &lt;![CDATA[ */!function(){try{var t=&quot;currentScript&quot;in document?document.currentScript:function(){for(var t=document.getElementsByTagName(&quot;script&quot;),e=t.length;e--;)if(t[e].getAttribute(&quot;cf-hash&quot;))return t[e]}();if(t&amp;&amp;t.previousSibling){var e,r,n,i,c=t.previousSibling,a=c.getAttribute(&quot;data-cfemail&quot;);if(a){for(e=&quot;&quot;,r=parseInt(a.substr(0,2),16),n=2;a.length-n;n+=2)i=parseInt(a.substr(n,2),16)^r,e+=String.fromCharCode(i);e=document.createTextNode(e),c.parentNode.replaceChild(e,c)}}}catch(u){}}();/* ]]&gt; */&lt;/script&gt;&quot;\n\nFacebook Fan Page: www . facebook . com / p2pdl","torrent":{"xt":"urn:btih:1b4da240fa8de0d65b49b215863b433b9e479399","amp;dn":"Example+-+Perfect+Replacement+%7BM4A%2BMP4%7D+%281080p%29+x264+%5BVX%5D+%5BP2PDL","amp;tr":["udp%3A%2F%2Ftracker.openbittorrent.com%3A80","udp%3A%2F%2Fopen.demonii.com%3A1337","udp%3A%2F%2Ftracker.coppersurfer.tk%3A6969","udp%3A%2F%2Fexodus.desync.com%3A6969"],"infoHash":"1b4da240fa8de0d65b49b215863b433b9e479399","infoHashBuffer":{"type":"Buffer","data":[27,77,162,64,250,141,224,214,91,73,178,21,134,59,67,59,158,71,147,153]},"announce":[],"urlList":[]}}